<?xml version="1.0" encoding="UTF-8"?>
<!DOCTYPE svg PUBLIC "-//W3C//DTD SVG 1.1//EN" "http://www.w3.org/Graphics/SVG/1.1/DTD/svg11.dtd">
<!-- Creator: CorelDRAW -->
<svg xmlns="http://www.w3.org/2000/svg" xml:space="preserve" width="3.60868in" height="0.867437in" version="1.1" style="shape-rendering:geometricPrecision; text-rendering:geometricPrecision; image-rendering:optimizeQuality; fill-rule:evenodd; clip-rule:evenodd"
viewBox="0 0 3603.13 866.1"
 xmlns:xlink="http://www.w3.org/1999/xlink"
 xmlns:xodm="http://www.corel.com/coreldraw/odm/2003">
 <defs>
  <style type="text/css">
   <![CDATA[
    .fil0 {fill:#0062FF}
    .fil1 {fill:black;fill-rule:nonzero}
   ]]>
  </style>
 </defs>
 <g id="Layer_x0020_1">
  <metadata id="CorelCorpID_0Corel-Layer"/>
  <path class="fil0" d="M380.69 777.77l312.83 -591.07c0.78,-1.63 1.64,-3.23 2.56,-4.78 5.21,-8.77 12.55,-16.01 21.39,-21.11 15.67,-9.05 34.54,-10.46 51.38,-3.9 12.62,4.93 23.11,13.94 29.88,25.68 13.68,23.7 5.22,50.84 2.07,76.07l-43.77 350.55c-0.14,3.19 -0.57,6.37 -1.25,9.49 -3.39,15.38 -13.01,28.55 -26.66,36.42 -10.97,6.33 -23.75,8.76 -36.27,6.88 -9.67,-1.46 -20.78,-5.83 -29.77,-9.78l-15.57 -6.84 12.9 -25.51 -138.66 33.1 45.86 150.15 12.86 -25.22 14.79 8.68c35.28,20.73 76.12,30.72 116.99,28.58 32.93,-1.72 64.73,-11.24 93.28,-27.72 54.19,-31.29 91.17,-84.72 101.51,-146.34l51.88 -415.51c0.39,-5.12 0.66,-10.26 0.62,-15.4 -0.28,-36.65 -10.15,-72.29 -28.47,-104.02 -26.11,-45.23 -67.49,-78.96 -117.06,-95.37 -0.48,-0.16 -0.96,-0.32 -1.44,-0.47 -1.14,-0.37 -2.28,-0.73 -3.43,-1.08 -19.76,-6.02 -40.34,-9.15 -60.99,-9.26 -37.69,-0.2 -74.42,9.63 -107.05,28.48 -32.91,18.99 -59.96,46.18 -78.54,79.09l-302.71 571.97c-4.86,10.61 -12.81,19.35 -22.93,25.2 -13.79,7.96 -30.23,9.68 -45.37,4.76 -13.18,-4.29 -24.24,-13.25 -31.18,-25.26 -5.04,-8.73 -7.64,-18.65 -7.51,-28.73 0.01,-0.34 0.01,-0.68 0.03,-1.02 2.1,-64.7 11.28,-131.3 20.44,-195.38 9.44,-66.05 20.29,-132.03 28.7,-198.2 2.84,-22.3 7.59,-37.91 28.42,-49.93 10.97,-6.33 23.75,-8.76 36.28,-6.87 9.67,1.46 20.78,5.82 29.76,9.77l15.58 6.84 -12.91 25.52 138.66 -33.1 -46.02 -150.17 -12.7 25.24 -14.78 -8.69c-35.29,-20.72 -76.12,-30.71 -117,-28.57 -32.92,1.72 -64.73,11.23 -93.27,27.72 -46.18,26.66 -80.12,69.48 -95.49,120.54 -2.55,8.46 -4.56,17.08 -6.02,25.79l-51.88 415.51c-0.4,5.18 -0.61,10.37 -0.62,15.57 -0.09,37.03 9.6,73.12 28.12,105.18 23.61,40.9 71.18,83.36 117.7,94.9l0.48 0.12 0.47 0.15c20.83,6.55 42.68,9.84 64.51,9.69 36.35,-0.25 71.72,-9.95 103.19,-28.12 26.19,-15.12 48.72,-35.54 66.2,-60.21z"/>
  <path class="fil1" d="M1565.68 226.87l74.74 0 -113.53 408.94 -80.45 0c-5.32,-22.05 -13.97,-55.98 -25.96,-101.81 -11.98,-45.82 -22.63,-87.07 -31.95,-123.76 -9.32,-36.69 -15.69,-64.35 -19.11,-82.99l-1.15 0c-7.61,37.64 -34.04,140.49 -79.3,308.56l-79.88 0 -98.13 -378.14c-7.61,-20.54 -19.59,-30.8 -35.94,-30.8l109.54 0c6.85,33.08 15.03,71.11 24.53,114.07 9.51,42.97 16.74,75.76 21.68,98.38 4.94,22.62 9.51,44.77 13.69,66.45 4.18,21.67 7.04,38.02 8.56,49.05l0.57 0c5.33,-25.48 19.11,-80.51 41.37,-165.11 22.25,-84.6 36.42,-138.88 42.51,-162.84l70.18 0c44.88,166.92 71.7,274.91 80.44,323.96l0.57 0c3.42,-19.01 8.75,-44.58 15.98,-76.71 7.23,-32.13 14.17,-61.69 20.82,-88.69 6.66,-26.99 14.26,-57.32 22.82,-90.97 8.56,-33.65 14.36,-56.18 17.4,-67.59zm686.11 77c0,-13.31 -3.33,-25.57 -9.98,-36.79 -6.66,-11.21 -15.59,-20.06 -26.81,-26.52 -11.22,-6.46 -23.49,-9.69 -36.8,-9.69l0 97.53 -48.43 0 0 56.46 49.06 0 0 169.96c0,27 5.81,47.34 17.41,61.03 11.6,13.69 30.91,20.53 57.91,20.53 23.96,0 41.46,-1.9 52.48,-5.7l0 -51.9c-5.32,1.14 -12.55,1.71 -21.68,1.71 -6.47,0 -11.79,-0.66 -15.97,-1.99 -4.19,-1.33 -7.51,-3.61 -9.98,-6.84 -2.47,-3.23 -4.28,-7.04 -5.42,-11.41 -1.14,-4.38 -1.71,-9.79 -1.71,-16.25l0 -159.13 62.19 0 0 -56.46 -62.19 0 -0.07 0 0 -24.53zm1289.15 0c0,-13.31 -3.33,-25.57 -9.99,-36.79 -6.65,-11.21 -15.59,-20.06 -26.81,-26.52 -11.22,-6.46 -23.48,-9.69 -36.8,-9.69l0 97.53 -48.5 0 0 56.46 49.07 0 0 169.96c0,27 5.8,47.34 17.4,61.03 11.6,13.69 30.91,20.53 57.91,20.53 23.96,0 41.46,-1.9 52.49,-5.7l0 -51.9c-5.33,1.14 -12.55,1.71 -21.68,1.71 -6.47,0 -11.79,-0.66 -15.98,-1.99 -4.18,-1.33 -7.51,-3.61 -9.98,-6.84 -2.47,-3.23 -4.28,-7.04 -5.42,-11.41 -1.14,-4.38 -1.71,-9.79 -1.71,-16.25l0 -159.13 62.19 0 0 -56.46 -62.19 0 0 -24.53zm-1650.31 253.81c0,37.64 1.33,62.55 3.99,74.71l-70.18 0c-2.28,-6.84 -3.8,-17.87 -4.56,-33.08 -15.98,26.62 -45.26,39.92 -87.86,39.92 -14.07,0 -27,-1.81 -38.79,-5.42 -11.79,-3.61 -21.58,-8.37 -29.38,-14.26 -7.8,-5.9 -14.45,-12.92 -19.97,-21.1 -5.52,-8.17 -9.51,-16.73 -11.99,-25.67 -2.47,-8.94 -3.71,-18.35 -3.71,-28.23 0,-33.46 12.55,-58.56 37.65,-75.29 25.1,-16.73 60.67,-25.09 106.69,-25.09l46.21 0 0 -21.11c0,-14.07 -3.71,-25.67 -11.13,-34.79 -7.41,-9.13 -21.39,-13.69 -41.93,-13.69 -18.64,0 -31.47,3.51 -38.51,10.55 -7.04,7.03 -11.88,17.21 -14.54,30.51l-70.18 0c1.14,-12.92 4.08,-24.81 8.84,-35.65 4.76,-10.84 11.88,-20.82 21.4,-29.95 9.51,-9.12 22.35,-16.25 38.51,-21.39 16.16,-5.13 35.28,-7.7 57.34,-7.7 81.39,0.38 122.09,34.79 122.09,103.23l0 133.46zm-71.32 -58.74l0 -8.56 -39.36 0c-27.01,0 -46.69,4.08 -59.05,12.26 -12.36,8.18 -18.54,20.63 -18.54,37.36 0,13.31 4.19,24.24 12.55,32.8 8.37,8.55 20.54,12.83 36.51,12.83 14.45,0 26.34,-2.28 35.66,-6.84 9.32,-4.56 16.17,-11.22 20.54,-19.97 4.38,-8.75 7.42,-17.68 9.13,-26.81 1.71,-9.13 2.57,-20.15 2.57,-33.08zm208.57 -55.89c23.96,5.7 43.74,12.07 59.33,19.1 15.59,7.03 27.29,15.02 35.09,23.96 7.8,8.94 13.03,17.78 15.69,26.52 2.66,8.74 3.99,19.39 3.99,31.94 0,27.38 -10.74,50 -32.23,67.87 -21.49,17.87 -52.97,26.81 -94.42,26.81 -41.46,0 -73.03,-8.84 -94.71,-26.52 -21.68,-17.68 -34.42,-41.16 -38.22,-70.44l72.46 0c7.61,28.52 28.72,42.78 63.33,42.78 32.71,0 49.07,-11.79 49.07,-35.36 0,-11.03 -4.28,-19.58 -12.83,-25.67 -8.56,-6.09 -24.82,-12.17 -48.78,-18.25 -23.2,-5.7 -42.41,-11.79 -57.62,-18.26 -15.21,-6.46 -26.72,-13.78 -34.51,-21.96 -7.8,-8.18 -13.03,-16.44 -15.69,-24.81 -2.66,-8.37 -3.99,-18.25 -3.99,-29.66 0,-11.79 2.09,-22.81 6.27,-33.08 4.19,-10.26 10.84,-19.77 19.97,-28.52 9.13,-8.74 21.58,-15.68 37.37,-20.82 15.79,-5.13 34.14,-7.7 55.06,-7.7 20.92,0 39.37,2.76 55.34,8.27 15.97,5.51 28.52,12.74 37.65,21.67 9.13,8.94 16.07,18.44 20.82,28.52 4.76,10.08 7.51,20.63 8.27,31.65l-70.18 0c-5.7,-24.71 -24.15,-37.07 -55.34,-37.07 -10.27,0 -18.73,1.52 -25.39,4.56 -6.65,3.04 -11.22,6.75 -13.69,11.12 -2.47,4.37 -3.71,9.41 -3.71,15.11 0,9.13 4.09,16.35 12.26,21.68 8.18,5.32 24.63,10.84 49.35,16.54zm554.63 26.81c0,11.41 -0.38,19.96 -1.14,25.66l-205.39 0c0,24.34 5.99,44.68 17.97,61.03 11.98,16.35 28.81,24.53 50.49,24.53 17.88,0 31,-3.24 39.37,-9.7 8.37,-6.46 15.22,-15.78 20.54,-27.95l73.6 0c-3.05,11.03 -7.51,21.49 -13.41,31.37 -5.9,9.89 -13.88,20.06 -23.96,30.51 -10.08,10.46 -23.58,18.73 -40.5,24.81 -16.93,6.09 -36.23,9.13 -57.91,9.13 -23.58,0 -44.6,-4.28 -63.04,-12.83 -18.45,-8.56 -33.19,-20.25 -44.22,-35.08 -11.03,-14.83 -19.3,-31.27 -24.82,-49.34 -5.52,-18.06 -8.27,-37.35 -8.27,-57.89 0,-48.67 12.36,-88.03 37.08,-118.06 24.73,-30.04 60.29,-45.06 106.69,-45.06 24.34,0 45.74,4.28 64.19,12.83 18.45,8.56 32.71,20.15 42.79,34.79 10.08,14.64 17.59,30.42 22.54,47.34 4.95,16.92 7.42,34.89 7.42,53.9zm-204.82 -21.11l130.65 0c-0.38,-22.05 -5.7,-39.83 -15.98,-53.33 -10.27,-13.5 -26.05,-20.25 -47.35,-20.25 -40.32,0 -62.76,24.53 -67.32,73.58zm459.37 -221.87l78.16 0 -150.05 408.94 -90.71 0 -134.64 -378.14c-7.61,-20.54 -19.59,-30.8 -35.94,-30.8l107.26 0 64.47 193.92c22.44,67.3 37.46,117.68 45.07,151.15l1.14 0c6.47,-26.62 22.25,-76.43 47.36,-149.44l67.89 -195.63zm346.64 242.97c0,11.41 -0.39,19.96 -1.15,25.66l-205.39 0c0,24.34 5.99,44.68 17.97,61.03 11.98,16.35 28.81,24.53 50.49,24.53 17.88,0 31,-3.24 39.36,-9.7 8.37,-6.46 15.22,-15.78 20.54,-27.95l73.6 0c-3.04,11.03 -7.51,21.49 -13.4,31.37 -5.9,9.89 -13.88,20.06 -23.97,30.51 -10.08,10.46 -23.58,18.73 -40.5,24.81 -16.93,6.09 -36.23,9.13 -57.91,9.13 -23.58,0 -44.6,-4.28 -63.04,-12.83 -18.45,-8.56 -33.19,-20.25 -44.22,-35.08 -11.03,-14.83 -19.3,-31.27 -24.82,-49.34 -5.52,-18.06 -8.27,-37.35 -8.27,-57.89 0,-48.67 12.37,-88.03 37.08,-118.06 24.73,-30.04 60.29,-45.06 106.69,-45.06 24.34,0 45.74,4.28 64.19,12.83 18.44,8.56 32.71,20.15 42.78,34.79 10.08,14.64 17.59,30.42 22.54,47.34 4.95,16.92 7.42,34.89 7.42,53.9zm-204.82 -21.11l130.65 0c-0.38,-22.05 -5.71,-39.83 -15.98,-53.33 -10.27,-13.5 -26.05,-20.25 -47.35,-20.25 -40.32,0 -62.76,24.53 -67.32,73.58zm338.08 -5.7c23.96,5.7 43.74,12.07 59.34,19.1 15.59,7.03 27.29,15.02 35.08,23.96 7.8,8.94 13.03,17.78 15.69,26.52 2.66,8.74 3.99,19.39 3.99,31.94 0,27.38 -10.75,50 -32.24,67.87 -21.49,17.87 -52.97,26.81 -94.42,26.81 -41.46,0 -73.03,-8.84 -94.71,-26.52 -21.68,-17.68 -34.42,-41.16 -38.22,-70.44l72.46 0c7.61,28.52 28.72,42.78 63.33,42.78 32.71,0 49.06,-11.79 49.06,-35.36 0,-11.03 -4.27,-19.58 -12.83,-25.67 -8.56,-6.09 -24.82,-12.17 -48.78,-18.25 -23.2,-5.7 -42.41,-11.79 -57.62,-18.26 -15.21,-6.46 -26.72,-13.78 -34.51,-21.96 -7.8,-8.18 -13.03,-16.44 -15.69,-24.81 -2.66,-8.37 -3.99,-18.25 -3.99,-29.66 0,-11.79 2.09,-22.81 6.27,-33.08 4.19,-10.26 10.84,-19.77 19.97,-28.52 9.12,-8.74 21.58,-15.68 37.36,-20.82 15.79,-5.13 34.14,-7.7 55.06,-7.7 20.92,0 39.37,2.76 55.34,8.27 15.97,5.51 28.53,12.74 37.65,21.67 9.13,8.94 16.07,18.44 20.82,28.52 4.76,10.08 7.51,20.63 8.27,31.65l-70.18 0c-5.7,-24.71 -24.16,-37.07 -55.34,-37.07 -10.27,0 -18.73,1.52 -25.39,4.56 -6.66,3.04 -11.22,6.75 -13.7,11.12 -2.47,4.37 -3.71,9.41 -3.71,15.11 0,9.13 4.09,16.35 12.27,21.68 8.18,5.32 24.62,10.84 49.35,16.54z"/>
 </g>
</svg>
